<svg width="24" height="25" viewBox="0 0 24 25" fill="none" xmlns="http://www.w3.org/2000/svg">
<path d="M11.9621 0C10.6478 0 9.3629 0.385848 8.27003 1.10875C7.17716 1.83166 6.32537 2.85915 5.82238 4.06129C5.31939 5.26344 5.18778 6.58625 5.4442 7.86244C5.70063 9.13863 6.33356 10.3109 7.26297 11.231C8.19238 12.151 9.37652 12.7776 10.6656 13.0315C11.9548 13.2853 13.291 13.155 14.5053 12.6571C15.7197 12.1592 16.7576 11.3159 17.4878 10.234C18.218 9.15211 18.6078 7.88014 18.6078 6.57895C18.6078 4.8341 17.9076 3.16072 16.6613 1.92693C15.415 0.693137 13.7247 0 11.9621 0ZM11.9621 10.5263C11.1735 10.5263 10.4026 10.2948 9.74687 9.86106C9.09115 9.42732 8.58008 8.81083 8.27828 8.08954C7.97649 7.36825 7.89753 6.57457 8.05138 5.80885C8.20523 5.04314 8.585 4.33979 9.14264 3.78774C9.70029 3.23569 10.4108 2.85974 11.1842 2.70743C11.9577 2.55512 12.7595 2.63329 13.4881 2.93205C14.2166 3.23082 14.8394 3.73677 15.2775 4.38591C15.7157 5.03505 15.9495 5.79823 15.9495 6.57895C15.9495 7.62585 15.5294 8.62988 14.7817 9.37016C14.0339 10.1104 13.0197 10.5263 11.9621 10.5263ZM23.9243 25V23.6842C23.9243 21.2414 22.9441 18.8987 21.1992 17.1714C19.4544 15.4441 17.0879 14.4737 14.6204 14.4737H9.30389C6.83635 14.4737 4.46986 15.4441 2.72505 17.1714C0.980228 18.8987 0 21.2414 0 23.6842V25H2.65825V23.6842C2.65825 21.9394 3.35842 20.266 4.60472 19.0322C5.85102 17.7984 7.54136 17.1053 9.30389 17.1053H14.6204C16.3829 17.1053 18.0733 17.7984 19.3196 19.0322C20.5659 20.266 21.266 21.9394 21.266 23.6842V25H23.9243Z" fill="#FF8C05"/>
</svg>
