<svg width="29" height="29" viewBox="0 0 29 29" fill="none" xmlns="http://www.w3.org/2000/svg">
<path d="M6.85485 8C6.06622 8 5.2953 7.76541 4.63958 7.32588C3.98386 6.88635 3.47279 6.26164 3.17099 5.53074C2.8692 4.79983 2.79023 3.99556 2.94409 3.21964C3.09794 2.44372 3.4777 1.73098 4.03535 1.17157C4.59299 0.612165 5.30348 0.231202 6.07695 0.0768607C6.85043 -0.0774802 7.65216 0.00173312 8.38076 0.304484C9.10935 0.607234 9.7321 1.11992 10.1702 1.77772C10.6084 2.43552 10.8422 3.20888 10.8422 4C10.8422 5.06087 10.4221 6.07828 9.67436 6.82843C8.92658 7.57857 7.91237 8 6.85485 8ZM6.85485 2C6.46054 2 6.07508 2.1173 5.74722 2.33706C5.41936 2.55683 5.16382 2.86918 5.01292 3.23463C4.86202 3.60009 4.82254 4.00222 4.89947 4.39018C4.9764 4.77814 5.16628 5.13451 5.4451 5.41422C5.72392 5.69392 6.07916 5.8844 6.4659 5.96157C6.85264 6.03874 7.2535 5.99914 7.6178 5.84776C7.9821 5.69639 8.29347 5.44004 8.51254 5.11114C8.73161 4.78224 8.84854 4.39556 8.84854 4C8.84854 3.46957 8.63849 2.96086 8.2646 2.58579C7.89071 2.21072 7.38361 2 6.85485 2ZM22.8044 8C22.0157 8 21.2448 7.76541 20.5891 7.32588C19.9334 6.88635 19.4223 6.26164 19.1205 5.53074C18.8187 4.79983 18.7398 3.99556 18.8936 3.21964C19.0475 2.44372 19.4272 1.73098 19.9849 1.17157C20.5425 0.612165 21.253 0.231202 22.0265 0.0768607C22.8 -0.0774802 23.6017 0.00173312 24.3303 0.304484C25.0589 0.607234 25.6816 1.11992 26.1198 1.77772C26.5579 2.43552 26.7918 3.20888 26.7918 4C26.7918 5.06087 26.3717 6.07828 25.6239 6.82843C24.8761 7.57857 23.8619 8 22.8044 8ZM22.8044 2C22.4101 2 22.0246 2.1173 21.6967 2.33706C21.3689 2.55683 21.1133 2.86918 20.9624 3.23463C20.8115 3.60009 20.7721 4.00222 20.849 4.39018C20.9259 4.77814 21.1158 5.13451 21.3946 5.41422C21.6734 5.69392 22.0287 5.8844 22.4154 5.96157C22.8022 6.03874 23.203 5.99914 23.5673 5.84776C23.9316 5.69639 24.243 5.44004 24.4621 5.11114C24.6811 4.78224 24.7981 4.39556 24.7981 4C24.7981 3.46957 24.588 2.96086 24.2141 2.58579C23.8402 2.21072 23.3331 2 22.8044 2ZM24.7981 29H20.8107C20.2819 29 19.7748 28.7893 19.4009 28.4142C19.027 28.0391 18.817 27.5304 18.817 27V20H20.8107V27H24.7981V18H26.7918V12C26.7918 11.7348 26.6867 11.4804 26.4998 11.2929C26.3128 11.1054 26.0593 11 25.7949 11H19.3952L14.8296 19L10.2641 11H3.86432C3.59994 11 3.34638 11.1054 3.15944 11.2929C2.97249 11.4804 2.86747 11.7348 2.86747 12V18H4.86116V27H8.84854V20H10.8422V27C10.8422 27.5304 10.6322 28.0391 10.2583 28.4142C9.8844 28.7893 9.3773 29 8.84854 29H4.86116C4.3324 29 3.8253 28.7893 3.45141 28.4142C3.07752 28.0391 2.86747 27.5304 2.86747 27V20C2.33871 20 1.83161 19.7893 1.45772 19.4142C1.08383 19.0391 0.873779 18.5304 0.873779 18V12C0.873779 11.2044 1.18885 10.4413 1.74969 9.87868C2.31052 9.31607 3.07118 9 3.86432 9H11.4204L14.8296 15L18.2388 9H25.7949C26.588 9 27.3487 9.31607 27.9095 9.87868C28.4704 10.4413 28.7854 11.2044 28.7854 12V18C28.7854 18.5304 28.5754 19.0391 28.2015 19.4142C27.8276 19.7893 27.3205 20 26.7918 20V27C26.7918 27.5304 26.5817 28.0391 26.2078 28.4142C25.8339 28.7893 25.3268 29 24.7981 29Z" fill="#FF8C05"/>
</svg>
