<svg width="28" height="29" viewBox="0 0 28 29" fill="none" xmlns="http://www.w3.org/2000/svg">
<rect y="27.7917" width="28" height="1.20833" rx="0.604167" fill="#FF8C05"/>
<rect width="6.04489" height="1.19149" rx="0.595744" transform="matrix(0.757903 -0.652368 0.625843 0.779949 4.31079 11.6249)" fill="#FF8C05"/>
<rect width="4.40412" height="1.20567" rx="0.602836" transform="matrix(0.96473 0.26324 -0.24652 0.969138 11.9644 7.25)" fill="#FF8C05"/>
<rect width="6.37524" height="1.18804" rx="0.59402" transform="matrix(0.700749 -0.713408 0.688392 0.725339 18.6665 8.17337)" fill="#FF8C05"/>
<path fill-rule="evenodd" clip-rule="evenodd" d="M5.8339 20.5417H1.16724V27.7917H2.33521V21.75H4.66854V27.7917H5.8339V20.5417Z" fill="#FF8C05"/>
<path fill-rule="evenodd" clip-rule="evenodd" d="M12.8339 14.5H8.16724V27.7917L9.33423 27.7917V15.7083H11.6676V27.7917L12.8339 27.7917V14.5Z" fill="#FF8C05"/>
<path fill-rule="evenodd" clip-rule="evenodd" d="M19.8329 16.9167H15.1663V27.7917H16.3342V18.125H18.6676V27.7917H19.8329V16.9167Z" fill="#FF8C05"/>
<path fill-rule="evenodd" clip-rule="evenodd" d="M26.8341 9.66666H22.1675V27.7917L23.3354 27.7917V10.875H25.6688V27.7917L26.8341 27.7917V9.66666Z" fill="#FF8C05"/>
<path fill-rule="evenodd" clip-rule="evenodd" d="M3.50057 15.7083C4.78923 15.7083 5.8339 14.6264 5.8339 13.2917C5.8339 11.957 4.78923 10.875 3.50057 10.875C2.21191 10.875 1.16724 11.957 1.16724 13.2917C1.16724 14.6264 2.21191 15.7083 3.50057 15.7083ZM3.50187 14.5C4.1462 14.5 4.66854 13.959 4.66854 13.2917C4.66854 12.6243 4.1462 12.0833 3.50187 12.0833C2.85754 12.0833 2.33521 12.6243 2.33521 13.2917C2.33521 13.959 2.85754 14.5 3.50187 14.5Z" fill="#FF8C05"/>
<path fill-rule="evenodd" clip-rule="evenodd" d="M10.5006 9.66668C11.7892 9.66668 12.8339 8.5847 12.8339 7.25001C12.8339 5.91532 11.7892 4.83334 10.5006 4.83334C9.21191 4.83334 8.16724 5.91532 8.16724 7.25001C8.16724 8.5847 9.21191 9.66668 10.5006 9.66668ZM10.5009 8.45833C11.1452 8.45833 11.6676 7.91734 11.6676 7.25C11.6676 6.58266 11.1452 6.04167 10.5009 6.04167C9.85656 6.04167 9.33423 6.58266 9.33423 7.25C9.33423 7.91734 9.85656 8.45833 10.5009 8.45833Z" fill="#FF8C05"/>
<path fill-rule="evenodd" clip-rule="evenodd" d="M17.4996 12.0833C18.7883 12.0833 19.8329 11.0014 19.8329 9.66667C19.8329 8.33198 18.7883 7.25 17.4996 7.25C16.2109 7.25 15.1663 8.33198 15.1663 9.66667C15.1663 11.0014 16.2109 12.0833 17.4996 12.0833ZM17.5009 10.875C18.1452 10.875 18.6676 10.334 18.6676 9.66667C18.6676 8.99932 18.1452 8.45833 17.5009 8.45833C16.8566 8.45833 16.3342 8.99932 16.3342 9.66667C16.3342 10.334 16.8566 10.875 17.5009 10.875Z" fill="#FF8C05"/>
<path fill-rule="evenodd" clip-rule="evenodd" d="M24.5008 4.83333C25.7895 4.83333 26.8341 3.75135 26.8341 2.41667C26.8341 1.08198 25.7895 0 24.5008 0C23.2121 0 22.1675 1.08198 22.1675 2.41667C22.1675 3.75135 23.2121 4.83333 24.5008 4.83333ZM24.5021 3.625C25.1464 3.625 25.6688 3.08401 25.6688 2.41667C25.6688 1.74932 25.1464 1.20833 24.5021 1.20833C23.8578 1.20833 23.3354 1.74932 23.3354 2.41667C23.3354 3.08401 23.8578 3.625 24.5021 3.625Z" fill="#FF8C05"/>
</svg>
