<svg width="29" height="31" viewBox="0 0 29 31" fill="none" xmlns="http://www.w3.org/2000/svg">
<path d="M24.5403 15.4995H15.6216V11.0711H13.3919V15.4995H4.4732C3.88204 15.5001 3.31525 15.7335 2.89724 16.1487C2.47922 16.5638 2.24412 17.1266 2.24353 17.7137V22.1421H4.4732V17.7137H13.3919V22.1421H15.6216V17.7137H24.5403V22.1421H26.7699V17.7137C26.7694 17.1266 26.5343 16.5638 26.1162 16.1487C25.6982 15.7335 25.1314 15.5001 24.5403 15.4995ZM18.9661 8.85684V0H10.0474V8.85684H18.9661ZM12.2771 6.64263V2.21421H16.7364V6.64263H12.2771ZM25.6551 24.3563C24.9656 24.3584 24.2937 24.5723 23.7316 24.9687C23.1695 25.3652 22.7448 25.9247 22.5157 26.5705H17.6461C17.4191 25.9234 16.9949 25.3624 16.4323 24.9655C15.8698 24.5685 15.1968 24.3553 14.5067 24.3553C13.8166 24.3553 13.1437 24.5685 12.5811 24.9655C12.0186 25.3624 11.5944 25.9234 11.3674 26.5705H6.49775C6.23476 25.8319 5.71728 25.2093 5.03677 24.8129C4.35627 24.4164 3.55654 24.2717 2.77895 24.4042C2.00135 24.5366 1.29596 24.9379 0.787434 25.5369C0.27891 26.1359 0 26.8942 0 27.6776C0 28.4611 0.27891 29.2194 0.787434 29.8184C1.29596 30.4174 2.00135 30.8186 2.77895 30.9511C3.55654 31.0836 4.35627 30.9388 5.03677 30.5424C5.71728 30.146 6.23476 29.5234 6.49775 28.7847H11.3674C11.5944 29.4319 12.0186 29.9928 12.5811 30.3898C13.1437 30.7867 13.8166 31 14.5067 31C15.1968 31 15.8698 30.7867 16.4323 30.3898C16.9949 29.9928 17.4191 29.4319 17.6461 28.7847H22.5157C22.7211 29.3573 23.081 29.8628 23.5561 30.246C24.0312 30.6292 24.6032 30.8753 25.2097 30.9574C25.8161 31.0396 26.4336 30.9547 26.9947 30.7119C27.5558 30.4691 28.039 30.0778 28.3913 29.5808C28.7436 29.0838 28.9516 28.5002 28.9925 27.8938C29.0334 27.2873 28.9057 26.6814 28.6233 26.1422C28.3409 25.6029 27.9147 25.1511 27.3912 24.8362C26.8677 24.5212 26.2672 24.3552 25.6551 24.3563ZM3.35837 28.7847C3.13787 28.7847 2.92233 28.7198 2.73899 28.5982C2.55566 28.4765 2.41277 28.3036 2.32839 28.1013C2.24401 27.899 2.22193 27.6764 2.26495 27.4617C2.30797 27.2469 2.41414 27.0496 2.57006 26.8948C2.72597 26.74 2.92461 26.6345 3.14087 26.5918C3.35713 26.5491 3.58128 26.571 3.78499 26.6548C3.9887 26.7386 4.16282 26.8805 4.28532 27.0626C4.40782 27.2446 4.4732 27.4587 4.4732 27.6776C4.4732 27.9713 4.35575 28.2529 4.14667 28.4605C3.9376 28.6681 3.65404 28.7847 3.35837 28.7847ZM14.5067 28.7847C14.2862 28.7847 14.0707 28.7198 13.8874 28.5982C13.704 28.4765 13.5611 28.3036 13.4768 28.1013C13.3924 27.899 13.3703 27.6764 13.4133 27.4617C13.4563 27.2469 13.5625 27.0496 13.7184 26.8948C13.8743 26.74 14.073 26.6345 14.2892 26.5918C14.5055 26.5491 14.7297 26.571 14.9334 26.6548C15.1371 26.7386 15.3112 26.8805 15.4337 27.0626C15.5562 27.2446 15.6216 27.4587 15.6216 27.6776C15.6216 27.9713 15.5041 28.2529 15.295 28.4605C15.086 28.6681 14.8024 28.7847 14.5067 28.7847ZM25.6551 28.7847C25.4346 28.7847 25.2191 28.7198 25.0357 28.5982C24.8524 28.4765 24.7095 28.3036 24.6251 28.1013C24.5407 27.899 24.5187 27.6764 24.5617 27.4617C24.6047 27.2469 24.7109 27.0496 24.8668 26.8948C25.0227 26.74 25.2214 26.6345 25.4376 26.5918C25.6539 26.5491 25.878 26.571 26.0817 26.6548C26.2854 26.7386 26.4596 26.8805 26.5821 27.0626C26.7046 27.2446 26.7699 27.4587 26.7699 27.6776C26.7699 27.9713 26.6525 28.2529 26.4434 28.4605C26.2343 28.6681 25.9508 28.7847 25.6551 28.7847Z" fill="#FF8C05"/>
</svg>
