<svg width="28" height="23" viewBox="0 0 28 23" fill="none" xmlns="http://www.w3.org/2000/svg">
<path d="M20.4385 22H26.918V19.375C26.9179 18.5567 26.6661 17.7588 26.1976 17.0921C25.7291 16.4254 25.0672 15.9231 24.3038 15.6551C23.5405 15.387 22.7136 15.3665 21.9382 15.5963C21.1628 15.8262 20.4773 16.295 19.9771 16.9377L20.4385 22ZM20.4385 22H7.4795H20.4385ZM20.4385 22V19.375C20.4385 18.514 20.2752 17.6911 19.9771 16.9377L20.4385 22ZM7.4795 22H1V19.375C1.00006 18.5567 1.25184 17.7588 1.72034 17.0921C2.18884 16.4254 2.85078 15.9231 3.61415 15.6551C4.37752 15.387 5.20439 15.3665 5.9798 15.5963C6.75522 15.8262 7.44066 16.295 7.94084 16.9377L7.4795 22ZM7.4795 22V19.375C7.4795 18.514 7.64278 17.6911 7.94084 16.9377L7.4795 22ZM7.94084 16.9377C8.42207 15.7196 9.2526 14.6755 10.3253 13.9401C11.398 13.2047 12.6636 12.8116 13.959 12.8116C15.2543 12.8116 16.52 13.2047 17.5927 13.9401C18.6654 14.6755 19.4959 15.7196 19.9771 16.9377H7.94084ZM17.8467 4.9375C17.8467 5.98179 17.4371 6.98331 16.708 7.72173C15.9789 8.46016 14.9901 8.875 13.959 8.875C12.9279 8.875 11.9391 8.46016 11.21 7.72173C10.4809 6.98331 10.0713 5.98179 10.0713 4.9375C10.0713 3.89321 10.4809 2.89169 11.21 2.15327C11.9391 1.41484 12.9279 1 13.959 1C14.9901 1 15.9789 1.41484 16.708 2.15327C17.4371 2.89169 17.8467 3.89321 17.8467 4.9375V4.9375ZM25.6221 8.875C25.6221 9.57119 25.349 10.2389 24.863 10.7312C24.3769 11.2234 23.7177 11.5 23.0303 11.5C22.3429 11.5 21.6837 11.2234 21.1976 10.7312C20.7115 10.2389 20.4385 9.57119 20.4385 8.875C20.4385 8.17881 20.7115 7.51113 21.1976 7.01885C21.6837 6.52656 22.3429 6.25 23.0303 6.25C23.7177 6.25 24.3769 6.52656 24.863 7.01885C25.349 7.51113 25.6221 8.17881 25.6221 8.875ZM7.4795 8.875C7.4795 9.57119 7.20643 10.2389 6.72038 10.7312C6.23432 11.2234 5.57508 11.5 4.8877 11.5C4.20031 11.5 3.54108 11.2234 3.05502 10.7312C2.56896 10.2389 2.2959 9.57119 2.2959 8.875C2.2959 8.17881 2.56896 7.51113 3.05502 7.01885C3.54108 6.52656 4.20031 6.25 4.8877 6.25C5.57508 6.25 6.23432 6.52656 6.72038 7.01885C7.20643 7.51113 7.4795 8.17881 7.4795 8.875Z" stroke="#FF8C05" stroke-width="2" stroke-linecap="round" stroke-linejoin="round"/>
</svg>
