<svg width="27" height="32" viewBox="0 0 27 32" fill="none" xmlns="http://www.w3.org/2000/svg">
<path d="M13.8327 16.5C16.3102 16.5 18.3185 14.4853 18.3185 12C18.3185 9.51472 16.3102 7.5 13.8327 7.5C11.3553 7.5 9.34692 9.51472 9.34692 12C9.34692 14.4853 11.3553 16.5 13.8327 16.5Z" stroke="#FF8C05" stroke-width="2" stroke-linecap="round" stroke-linejoin="round"/>
<path d="M13.8328 1C10.6602 1 7.61757 2.26428 5.37424 4.51472C3.1309 6.76516 1.87061 9.8174 1.87061 13C1.87061 15.838 2.4717 17.695 4.11351 19.75L13.8328 31L23.552 19.75C25.1938 17.695 25.7949 15.838 25.7949 13C25.7949 9.8174 24.5346 6.76516 22.2913 4.51472C20.0479 2.26428 17.0053 1 13.8328 1V1Z" stroke="#FF8C05" stroke-width="2" stroke-linecap="round" stroke-linejoin="round"/>
</svg>
