<svg width="24" height="24" viewBox="0 0 24 24" fill="none" xmlns="http://www.w3.org/2000/svg">
<path d="M23.7606 2.38403C23.9137 2.53916 23.9997 2.74926 23.9997 2.96829C23.9997 3.18733 23.9137 3.39743 23.7606 3.55255L22.0517 5.28051L18.7748 1.97025L20.4837 0.2423C20.6373 0.0871553 20.8457 0 21.0629 0C21.2801 0 21.4885 0.0871553 21.6421 0.2423L23.7606 2.38238V2.38403ZM20.8933 6.44903L17.6164 3.13877L6.45358 14.4168C6.3634 14.5079 6.29551 14.619 6.25532 14.7412L4.93636 18.7367C4.91244 18.8095 4.90905 18.8877 4.92655 18.9623C4.94406 19.037 4.98178 19.1053 5.0355 19.1596C5.08922 19.2138 5.15682 19.2519 5.23075 19.2696C5.30467 19.2873 5.38201 19.2839 5.45412 19.2597L9.40936 17.9273C9.53022 17.8872 9.64017 17.8192 9.7305 17.7287L20.8933 6.45068V6.44903Z" fill="#262628"/>
<path fill-rule="evenodd" clip-rule="evenodd" d="M0 21.5173C0 22.1758 0.258935 22.8073 0.719841 23.2729C1.18075 23.7385 1.80587 24 2.45769 24H20.4808C21.1326 24 21.7577 23.7385 22.2186 23.2729C22.6795 22.8073 22.9384 22.1758 22.9384 21.5173V11.5866C22.9384 11.3671 22.8521 11.1566 22.6985 11.0014C22.5449 10.8462 22.3365 10.759 22.1192 10.759C21.9019 10.759 21.6936 10.8462 21.5399 11.0014C21.3863 11.1566 21.3 11.3671 21.3 11.5866V21.5173C21.3 21.7368 21.2137 21.9473 21.06 22.1025C20.9064 22.2577 20.698 22.3449 20.4808 22.3449H2.45769C2.24042 22.3449 2.03204 22.2577 1.87841 22.1025C1.72477 21.9473 1.63846 21.7368 1.63846 21.5173V3.31094C1.63846 3.09145 1.72477 2.88096 1.87841 2.72576C2.03204 2.57056 2.24042 2.48337 2.45769 2.48337H13.1077C13.325 2.48337 13.5333 2.39619 13.687 2.24099C13.8406 2.08579 13.9269 1.87529 13.9269 1.65581C13.9269 1.43633 13.8406 1.22583 13.687 1.07063C13.5333 0.915437 13.325 0.828247 13.1077 0.828247H2.45769C1.80587 0.828247 1.18075 1.08982 0.719841 1.55541C0.258935 2.02101 0 2.65249 0 3.31094V21.5173Z" fill="#262628"/>
</svg>
